<mxfile host="app.diagrams.net" modified="2024-09-26T02:41:38.186Z" agent="Mozilla/5.0 (Windows NT 10.0; Win64; x64) AppleWebKit/537.36 (KHTML, like Gecko) Chrome/124.0.0.0 Safari/537.36 Edg/124.0.0.0" version="24.7.1" etag="d1KEx0YtfavBHKBltjPs" type="github">
  <diagram name="Page-1" id="DITY_7372NWyMUjMAGla">
    <mxGraphModel>
      <root>
        <mxCell id="0" />
        <mxCell id="1" parent="0" />
      </root>
    </mxGraphModel>
  </diagram>
</mxfile>
